<svg width="328" height="328" viewBox="0 0 328 328" fill="none" xmlns="http://www.w3.org/2000/svg">
<path fill-rule="evenodd" clip-rule="evenodd" d="M328 56.5C328 25.2959 302.704 8.4564e-06 271.5 5.98671e-06L260.54 5.50763e-06C229.336 4.14366e-06 204.04 25.2959 204.04 56.5V204.04H56.5C25.2959 204.04 0 229.336 0 260.54V271.5C0 302.704 25.2959 328 56.5 328H271.5C271.52 328 271.54 328 271.559 328H328V56.5Z" fill="#fff"/>
<path d="M0 83.5C0 37.3842 37.3842 5.50763e-06 83.5 5.50763e-06C129.616 5.50763e-06 167 37.3842 167 83.5C167 129.616 129.616 167 83.5 167C37.3842 167 0 129.616 0 83.5Z" fill="#fff"/>
<path d="M0 202H230V328H0V202Z" fill="#fff"/>
<path d="M328 5.50763e-06V230H202V0L328 5.50763e-06Z" fill="#fff"/>
</svg>
